<svg width="28" height="28" viewBox="0 0 28 28" fill="currentColor" xmlns="http://www.w3.org/2000/svg">
<path d="M23.6428 5.23C23.0634 4.65028 22.3754 4.19041 21.6182 3.87665C20.8609 3.56289 20.0493 3.4014 19.2297 3.4014C18.41 3.4014 17.5984 3.56289 16.8411 3.87665C16.0839 4.19041 15.3959 4.65028 14.8165 5.23L13.6139 6.43257L12.4114 5.23C11.2409 4.05956 9.65343 3.402 7.99817 3.402C6.34291 3.402 4.75544 4.05956 3.58499 5.23C2.41454 6.40045 1.75699 7.98792 1.75699 9.64318C1.75699 11.2984 2.41454 12.8859 3.58499 14.0564L13.6139 24.0853L23.6428 14.0564C24.2226 13.4769 24.6824 12.7889 24.9962 12.0317C25.31 11.2745 25.4714 10.4628 25.4714 9.64318C25.4714 8.82353 25.31 8.0119 24.9962 7.25467C24.6824 6.49744 24.2226 5.80945 23.6428 5.23Z" stroke="#1E1E1E" stroke-width="1.6" stroke-linecap="round" stroke-linejoin="round"/>
</svg>
