<svg width="28" height="28" viewBox="0 0 28 28" fill="none" xmlns="http://www.w3.org/2000/svg">
<g filter="url(#filter0_i_69_337)">
<rect width="28" height="28" rx="5" fill="white"/>
</g>
<g clip-path="url(#clip0_69_337)">
<path d="M17.3334 7.00001C17.5085 6.82491 17.7163 6.68602 17.9451 6.59126C18.1739 6.4965 18.4191 6.44772 18.6667 6.44772C18.9143 6.44772 19.1595 6.4965 19.3883 6.59126C19.6171 6.68602 19.8249 6.82491 20 7.00001C20.1751 7.1751 20.314 7.38297 20.4088 7.61175C20.5036 7.84052 20.5523 8.08572 20.5523 8.33334C20.5523 8.58096 20.5036 8.82616 20.4088 9.05494C20.314 9.28371 20.1751 9.49158 20 9.66667L11 18.6667L7.33337 19.6667L8.33337 16L17.3334 7.00001Z" stroke="#1E1E1E" stroke-width="1.6" stroke-linecap="round" stroke-linejoin="round"/>
</g>
<defs>
<filter id="filter0_i_69_337" x="-1" y="-1" width="29" height="29" filterUnits="userSpaceOnUse" color-interpolation-filters="sRGB">
<feFlood flood-opacity="0" result="BackgroundImageFix"/>
<feBlend mode="normal" in="SourceGraphic" in2="BackgroundImageFix" result="shape"/>
<feColorMatrix in="SourceAlpha" type="matrix" values="0 0 0 0 0 0 0 0 0 0 0 0 0 0 0 0 0 0 127 0" result="hardAlpha"/>
<feOffset dx="-1" dy="-1"/>
<feGaussianBlur stdDeviation="0.5"/>
<feComposite in2="hardAlpha" operator="arithmetic" k2="-1" k3="1"/>
<feColorMatrix type="matrix" values="0 0 0 0 0 0 0 0 0 0 0 0 0 0 0 0 0 0 0.25 0"/>
<feBlend mode="normal" in2="shape" result="effect1_innerShadow_69_337"/>
</filter>
<clipPath id="clip0_69_337">
<rect x="6" y="5" width="16" height="16" rx="5" fill="white"/>
</clipPath>
</defs>
</svg>
