<svg width="28" height="28" viewBox="0 0 28 28" fill="none" xmlns="http://www.w3.org/2000/svg">
<path d="M23.8244 13.0467C23.8283 14.5441 23.4784 16.0212 22.8033 17.3578C22.0029 18.9594 20.7723 20.3065 19.2495 21.2482C17.7266 22.19 15.9717 22.6892 14.1812 22.6899C12.6838 22.6938 11.2067 22.3439 9.8701 21.6688L3.40349 23.8244L5.55903 17.3578C4.88392 16.0212 4.53408 14.5441 4.53798 13.0467C4.53867 11.2562 5.03785 9.50121 5.97961 7.97838C6.92136 6.45555 8.26849 5.22498 9.8701 4.42452C11.2067 3.74942 12.6838 3.39957 14.1812 3.40347H14.7484C17.1131 3.53393 19.3466 4.53203 21.0212 6.20665C22.6958 7.88127 23.6939 10.1147 23.8244 12.4794V13.0467Z" stroke="#1E1E1E" stroke-width="2" stroke-linecap="round" stroke-linejoin="round"/>
</svg>
